<svg xmlns="http://www.w3.org/2000/svg" version="1.1" xmlns:xlink="http://www.w3.org/1999/xlink" xmlns:svgjs="http://svgjs.dev/svgjs" width="1000" height="229" viewBox="0 0 1000 229"><g transform="matrix(1,0,0,1,-0.6060606060606233,0.2654297290304015)"><svg viewBox="0 0 396 91" data-background-color="#ffffff" preserveAspectRatio="xMidYMid meet" height="229" width="1000" xmlns="http://www.w3.org/2000/svg" xmlns:xlink="http://www.w3.org/1999/xlink"><g id="tight-bounds" transform="matrix(1,0,0,1,0.2400000000000091,-0.10547644254046418)"><svg viewBox="0 0 395.52 91.21095288508093" height="91.21095288508093" width="395.52"><g><svg viewBox="0 0 522.8742273381325 120.58013884142774" height="91.21095288508093" width="395.52"><g transform="matrix(1,0,0,1,0,16.664838291398482)"><svg viewBox="0 0 395.52 87.25046225863078" height="87.25046225863078" width="395.52"><g id="textblocktransform"><svg viewBox="0 0 395.52 87.25046225863078" height="87.25046225863078" width="395.52" id="textblock"><g><svg viewBox="0 0 395.52 87.25046225863078" height="87.25046225863078" width="395.52"><g transform="matrix(1,0,0,1,0,0)"><svg width="395.52" viewBox="3.1 -36.25 170.89000000000001 37.7" height="87.25046225863078" data-palette-color="#ffffff"><g class="undefined-text-0" data-fill-palette-color="primary" id="text-0"><path d="M17.75-35.05Q21.2-34.85 23.48-32.25 25.75-29.65 25.75-24.45L25.75-24.45Q25.75-21.05 24.3-19.05 22.85-17.05 20.95-16.28 19.05-15.5 17.6-15.5L17.6-15.5Q16.25-15.5 13.05-15.2L13.05-15.2Q11.2-15 10.05-14.95L10.05-14.95Q9.95-10.35 9.95-8.7L9.95-8.7Q9.95-2.2 10.1-1.65L10.1-1.65Q10.2-1.15 9.93-0.78 9.65-0.4 9.22-0.28 8.8-0.15 8.45-0.3L8.45-0.3Q8.3-0.35 7.6-0.35L7.6-0.35Q6.1-0.35 4.4-0.15L4.4-0.15Q3.6-0.05 3.35-0.48 3.1-0.9 3.1-1.8L3.1-1.8Q3.1-2.9 3.15-3.8L3.15-3.8 3.2-8 3.3-13.9Q3.6-24.5 3.6-30.45L3.6-30.45Q3.6-32.25 3.55-32.6L3.55-32.6Q3.45-33.7 3.45-33.9L3.45-33.9Q3.45-35.2 4-35.2L4-35.2Q4.25-35.2 5.03-35.15 5.8-35.1 7.2-35.1L7.2-35.1Q7.6-35.1 9.25-35.15 10.9-35.2 12.7-35.2L12.7-35.2Q15.35-35.2 17.75-35.05L17.75-35.05ZM16.2-19.1Q18.05-19.1 19.65-20.2 21.25-21.3 21.25-24.15L21.25-24.15Q21.25-27.2 20-28.78 18.75-30.35 16.35-30.8L16.35-30.8Q12.6-31.55 10.45-31.4L10.45-31.4Q10.45-30 10.4-29.3L10.4-29.3Q10.3-26.5 10.15-25.3L10.15-25.3Q9.95-23.55 10.05-21.35L10.05-21.35 10.15-19.4 12.5-19.25Q13.85-19.1 16.2-19.1L16.2-19.1ZM51.5-1.4Q52.2-0.3 52.2 0.05L52.2 0.05Q52.2 0.25 51.95 0.3 51.7 0.35 51.52 0.35 51.35 0.35 51.25 0.35L51.25 0.35 45.6 0.5Q45.2 0.5 44.97 0.15 44.75-0.2 44.35-1.1L44.35-1.1Q44.1-1.85 43.45-3.1L43.45-3.1Q42.45-4.9 40-9.85L40-9.85 37.45-14.8 37.6-12.15 37.85-8.35Q38.15-1.65 38.35-0.95L38.35-0.95Q38.4-0.75 38.4-0.45L38.4-0.45Q38.4 0.45 37.45 0.45L37.45 0.45Q37.15 0.45 36.95 0.4L36.95 0.4Q36.15 0.3 33.05 0.6L33.05 0.6Q30.95 0.8 30.5 0.8L30.5 0.8Q29.85 0.8 29.62 0.55 29.4 0.3 29.4-0.3L29.4-0.3 29.45-1.45 29.35-4.35Q29.05-9.55 29.05-13.4L29.05-13.4Q29.05-15.4 29.2-16.15L29.2-16.15Q29.45-17.4 29.45-23.2L29.45-23.2Q29.45-29.25 29.25-32.35L29.25-32.35Q29.2-32.75 29.2-33.45L29.2-33.45Q29.2-34.25 29.35-34.6 29.5-34.95 29.67-34.98 29.85-35 30.3-35L30.3-35 31.4-35.1Q34.85-35.5 36.9-35.5L36.9-35.5Q42.5-35.5 45.32-32.63 48.15-29.75 48.15-25.15L48.15-25.15Q48.15-21.5 45.8-18.15L45.8-18.15Q44.8-16.7 43.5-15.55L43.5-15.55 47-9.2Q50.85-2.3 51.5-1.4L51.5-1.4ZM37.15-21.45Q37.9-21.45 38.5-21.75L38.5-21.75Q39.9-22.4 39.9-24.4L39.9-24.4Q39.9-25.85 39.45-26.55 39-27.25 38.3-27.25L38.3-27.25Q37.75-27.25 37.35-26.85L37.35-26.85Q37.3-26.8 37.35-26.15 37.4-25.5 37.4-24.85L37.4-24.85Q37.4-24.3 37.35-24.05L37.35-24.05Q37.15-23.2 37.15-22.3L37.15-22.3 37.1-21.85 37.15-21.45ZM59.14-33.4Q58.99-32.3 58.89-27.75L58.89-27.75Q58.89-26.35 58.7-20.65L58.7-20.65Q58.49-15.15 58.49-13.95L58.49-13.95Q58.49-11.05 58.59-6.63 58.7-2.2 58.8-1.35L58.8-1.35Q58.84-1.05 58.84-0.65L58.84-0.65Q58.84-0.3 58.72-0.15 58.59 0 58.34 0.15L58.34 0.15Q58.05 0.35 56.8 0.35L56.8 0.35Q56.59 0.35 56.17 0.35 55.74 0.35 55.64 0.25 55.55 0.15 55.55-0.15L55.55-0.15 55.59-1.75 55.7-8.3 55.8-18.8Q55.8-20.3 55.99-25.6L55.99-25.6Q56.05-26.85 56.14-29.68 56.24-32.5 56.14-33L56.14-33 56.09-34.05Q56.09-35.35 56.89-35.35L56.89-35.35 58.74-35.3Q59.24-35.3 59.24-34.6L59.24-34.6Q59.24-34.35 59.2-34.02 59.14-33.7 59.14-33.4L59.14-33.4ZM68.04-36.15L72.29-36.2Q73.39-36.2 73.92-35.98 74.44-35.75 74.74-35.2L74.74-35.2Q75.24-34.15 75.99-32.5L75.99-32.5 77.84-28.5 80.19-23.35Q80.84-21.95 81.89-19.65 82.94-17.35 83.39-16.45L83.39-16.45Q84.24-14.7 84.49-14.3L84.49-14.3 85.89-11.55 87.44-8.5 87.34-11.4 87.14-16.3 87.14-17.8Q87.14-20.55 87.24-23.35L87.24-23.35Q87.24-25.45 87.19-26.75L87.19-26.75 87.14-30.55 87.34-35.35Q87.34-36.1 88.09-36.1L88.09-36.1Q88.34-36.1 89.09-35.95L89.09-35.95Q89.54-35.85 90.04-35.85 90.54-35.85 90.84-35.85L90.84-35.85Q91.24-35.85 91.37-35.75 91.49-35.65 91.49-35.4L91.49-35.4Q91.49-35.2 91.44-34.95 91.39-34.7 91.39-34.4L91.39-34.4 91.34-30.1 91.24-20 91.19-18.55Q91.19-16.85 91.24-15.45 91.29-14.05 91.34-13.15L91.34-13.15Q91.49-11 91.49-9.55L91.49-9.55Q91.49-9.75 91.64-3.6L91.64-3.6 91.74-0.8 91.74-0.7Q91.74 0.3 90.79 0.2L90.79 0.2Q90.64 0.15 90.19 0.15L90.19 0.15 88.74 0.2 88.44 0.2Q88.09 0.2 87.92 0.05 87.74-0.1 87.34-0.8L87.34-0.8Q87.19-1.15 86.94-1.8 86.69-2.45 86.34-3.25L86.34-3.25Q84.19-8.65 83.24-10.6L83.24-10.6Q82.14-12.7 77.69-22.65L77.69-22.65Q76.69-24.7 75.44-27L75.44-27 73.99-29.6 74.14-24.85 74.19-21.9Q74.29-18.6 74.29-17.55L74.29-17.55Q74.29-13.45 74.44-9.3L74.44-9.3 74.49-5.4Q74.49-4.35 74.59-2.35L74.59-2.35 74.69-0.6 74.69-0.5Q74.69 0 74.44 0.15 74.19 0.3 73.74 0.3L73.74 0.3 72.64 0.35Q71.59 0.5 70.39 0.5L70.39 0.5Q68.99 0.5 68.09 0.55L68.09 0.55 65.54 0.6Q64.79 0.6 64.54 0.33 64.29 0.05 64.24-0.3 64.19-0.65 64.14-0.8L64.14-0.8Q63.94-1.7 63.94-3L63.94-3Q63.94-4.2 63.99-5.05L63.99-5.05Q63.99-7.65 64.09-11.13 64.19-14.6 64.34-16.1L64.34-16.1 64.59-19.65Q65.19-27.95 65.19-29L65.19-29Q65.19-32.95 65.34-34.9L65.34-34.9Q65.44-36.25 66.74-36.25L66.74-36.25Q67.14-36.25 67.49-36.2 67.84-36.15 68.04-36.15L68.04-36.15ZM120.94-33.9Q120.94-33.65 120.87-32.6 120.79-31.55 120.79-30L120.79-30Q120.79-28.6 120.94-26.2L120.94-26.2Q120.94-24.85 119.19-24.85L119.19-24.85 110.39-24.85 110.29-19.7Q110.24-18.85 110.24-15.45L110.24-15.45Q110.24-11.95 110.29-8.65 110.34-5.35 110.34-2.95L110.34-2.95 110.39-0.9 110.39-0.65Q110.39-0.2 110.27-0.1 110.14 0 109.94 0 109.74 0 109.64 0L109.64 0 106.24 0Q105.64 0 105.54-0.2 105.44-0.4 105.44-0.93 105.44-1.45 105.44-1.7L105.44-1.7 105.64-7.9Q105.94-16 105.94-18.3L105.94-18.3Q105.94-19.6 105.84-22.2L105.84-22.2 105.79-24.85Q102.19-24.85 98.49-24.75L98.49-24.75 96.94-24.7Q96.29-24.7 96.04-25.05 95.79-25.4 95.94-25.85L95.94-25.85 95.99-27.1Q96.09-30 96.09-32.45L96.09-32.45Q96.09-33.65 96.04-33.9L96.04-33.9 96.04-34.25Q96.04-34.8 96.27-34.9 96.49-35 96.94-35L96.94-35 101.89-35 104.69-35.05Q107.29-35.15 108.34-35.15L108.34-35.15 111.34-35.1Q114.94-35 116.99-35L116.99-35Q118.49-35 118.94-35.05L118.94-35.05Q120.04-35.1 120.49-34.73 120.94-34.35 120.94-33.9L120.94-33.9ZM128.29-35.3Q129.24-35.3 131.44-35.5L131.44-35.5Q133.84-35.7 135.29-35.7L135.29-35.7 140.74-35.65Q141.49-35.6 142.29-35.6L142.29-35.6Q142.74-35.6 142.81-35.15 142.89-34.7 142.89-33.35L142.89-33.35 142.84-27.2Q142.84-26.65 142.56-26.3 142.29-25.95 141.81-25.58 141.34-25.2 141.04-24.95L141.04-24.95Q139.69-24 135.79-21L135.79-21Q135.49-20.7 135.06-20.38 134.64-20.05 134.19-19.65L134.19-19.65Q133.99-19.5 133.71-19.28 133.44-19.05 133.04-18.8L133.04-18.8Q132.44-18.45 132.44-18.15L132.44-18.15Q132.44-17.95 132.59-17.95L132.59-17.95Q132.69-17.95 133.24-17.98 133.79-18 134.59-17.95L134.59-17.95Q135.74-17.95 137.51-17.82 139.29-17.7 140.04-17.6L140.04-17.6Q140.99-17.5 142.21-16.82 143.44-16.15 144.46-14.5 145.49-12.85 145.49-10.1L145.49-10.1Q145.49-7.85 144.89-6.2L144.89-6.2Q144.79-5.95 144.36-4.67 143.94-3.4 143.19-2.43 142.44-1.45 141.34-0.7L141.34-0.7Q139.44 0.4 138.24 0.8L138.24 0.8Q136.54 1.45 131.89 1.45L131.89 1.45Q129.79 1.45 128.04-0.08 126.29-1.6 125.24-3.38 124.19-5.15 123.79-6.2L123.79-6.2Q123.54-6.65 123.54-7L123.54-7Q123.54-7.25 123.71-7.33 123.89-7.4 123.94-7.45L123.94-7.45Q123.99-7.55 124.41-7.75 124.84-7.95 124.99-8L124.99-8Q125.09-8.05 125.24-8.05L125.24-8.05Q125.64-8.05 125.79-7.35L125.79-7.35Q125.89-7.15 126.26-6 126.64-4.85 127.59-3.4L127.59-3.4Q128.54-1.95 130.29-1.07 132.04-0.2 134.39-0.2L134.39-0.2Q136.09-0.2 137.51-0.75 138.94-1.3 139.79-1.75 140.64-2.2 140.84-2.3L140.84-2.3Q141.39-2.65 142.14-3.7 142.89-4.75 143.44-6.43 143.99-8.1 143.99-10.1L143.99-10.1Q143.79-13.3 141.74-15L141.74-15Q140.24-16.25 136.44-16.25L136.44-16.25Q134.89-16.25 131.04-15.7L131.04-15.7Q129.74-15.5 128.79-15.5L128.79-15.5 128.69-15.5Q128.44-15.5 128.34-15.8L128.34-15.8Q128.29-16.05 128.29-16.75L128.29-16.75Q128.29-16.9 128.44-17.07 128.59-17.25 128.81-17.43 129.04-17.6 129.34-17.85L129.34-17.85Q129.74-18.25 133.11-21 136.49-23.75 138.24-25.15L138.24-25.15Q138.44-25.35 138.44-25.5L138.44-25.5Q138.44-25.85 136.94-25.85L136.94-25.85Q136.34-25.8 132.24-25.75 128.14-25.7 125.54-25.65L125.54-25.65Q124.99-25.65 124.86-25.95 124.74-26.25 124.76-26.73 124.79-27.2 124.79-27.4L124.79-27.4 124.84-32 124.79-34.5Q124.79-35.5 125.99-35.5L125.99-35.5Q126.29-35.5 127.09-35.4L127.09-35.4Q127.89-35.3 128.29-35.3L128.29-35.3ZM158.84-35Q161.89-35 165.34-33.38 168.79-31.75 171.39-27.45 173.99-23.15 173.99-15.75L173.99-15.75Q173.99-9 170.76-5.53 167.54-2.05 163.99-1.07 160.44-0.1 158.09-0.1L158.09-0.1 153.99-0.05Q152.89 0 151.29 0L151.29 0Q150.34 0 150.34-1.7L150.34-1.7 150.39-3 150.29-5.5 150.24-7.75 150.19-9.25Q149.99-11.85 149.99-15.15L149.99-15.15Q149.99-17.1 150.19-20.3L150.19-20.3Q150.39-23.5 150.39-25.55L150.39-25.55 150.34-32.25Q150.29-33.05 150.29-34.05L150.29-34.05Q150.29-34.6 151.01-34.73 151.74-34.85 152.54-34.83 153.34-34.8 153.64-34.8L153.64-34.8 155.44-34.9Q157.54-35 158.84-35L158.84-35ZM158.94-10.7Q160.29-11.35 161.44-12.5L161.44-12.5Q163.94-14.9 163.94-18.2L163.94-18.2Q163.94-21.35 161.54-23.25L161.54-23.25Q160.49-24.05 159.19-24.45L159.19-24.45Q159.29-23.35 159.29-22.75L159.29-22.75Q159.29-21.8 159.19-20L159.19-20Q159.09-18.3 159.09-17.5L159.09-17.5Q159.09-16.2 158.99-13.3L158.99-13.3Q158.94-12.45 158.94-10.7L158.94-10.7Z" fill="#ffffff" data-fill-palette-color="primary"></path></g></svg></g></svg></g></svg></g></svg></g><g transform="matrix(1,0,0,1,416.1177401281685,0)"><svg viewBox="0 0 106.75648720996406 120.58013884142774" height="120.58013884142774" width="106.75648720996406"><g><svg xmlns="http://www.w3.org/2000/svg" data-name="Glyph Icon" viewBox="7.21 4 49.58 56" x="0" y="0" height="120.58013884142774" width="106.75648720996406" class="icon-icon-0" data-fill-palette-color="accent" id="icon-0"><path d="M49.13 20.84l-16-9.26V4L55.7 17.05ZM32 50.52L16 41.26V22.74l16-9.26 16 9.26V41.26ZM30.91 11.58l-16 9.26L8.3 17.05 30.91 4ZM13.77 22.74V41.26L7.21 45.05V19Zm1.1 20.42l16 9.26V60L8.3 47Zm18.22 9.26l16-9.26L55.7 47 33.09 60ZM50.23 41.26V22.74L56.79 19v26.1Z" fill="#5dc1fa" data-fill-palette-color="accent"></path></svg></g></svg></g></svg></g><defs></defs></svg><rect width="395.52" height="91.21095288508093" fill="none" stroke="none" visibility="hidden"></rect></g></svg></g></svg>